Kode-Regular.ufo
<glyph name="ampersand" format="2">
  <advance width="1200"/>
  <unicode hex="0026"/>
  <outline>
    <contour>
      <point x="362" y="1393" type="line"/>
      <point x="799" y="1393" type="line"/>
      <point x="910" y="1232" type="line"/>
      <point x="910" y="1134" type="line"/>
      <point x="583" y="794" type="line"/>
      <point x="863" y="374" type="line"/>
      <point x="1010" y="530" type="line"/>
      <point x="880" y="530" type="line"/>
      <point x="880" y="674" type="line"/>
      <point x="1160" y="674" type="line"/>
      <point x="1160" y="472" type="line"/>
      <point x="944" y="251" type="line"/>
      <point x="1118" y="0" type="line"/>
      <point x="944" y="0" type="line"/>
      <point x="842" y="149" type="line"/>
      <point x="702" y="0" type="line"/>
      <point x="167" y="0" type="line"/>
      <point x="40" y="187" type="line"/>
      <point x="40" y="442" type="line"/>
      <point x="396" y="811" type="line"/>
      <point x="200" y="1100" type="line"/>
      <point x="200" y="1223" type="line"/>
    </contour>
    <contour>
      <point x="336" y="1155" type="line"/>
      <point x="498" y="917" type="line"/>
      <point x="765" y="1189" type="line"/>
      <point x="727" y="1249" type="line"/>
      <point x="425" y="1249" type="line"/>
    </contour>
    <contour>
      <point x="200" y="208" type="line"/>
      <point x="243" y="144" type="line"/>
      <point x="642" y="144" type="line"/>
      <point x="761" y="268" type="line"/>
      <point x="476" y="688" type="line"/>
      <point x="200" y="399" type="line"/>
    </contour>
  </outline>
</glyph>
<glyph name="asterisk" format="2">
  <advance width="1200"/>
  <unicode hex="002A"/>
  <outline>
    <contour>
      <point x="521" y="1055" type="line"/>
      <point x="679" y="1055" type="line"/>
      <point x="679" y="782" type="line"/>
      <point x="939" y="865" type="line"/>
      <point x="988" y="714" type="line"/>
      <point x="730" y="631" type="line"/>
      <point x="888" y="409" type="line"/>
      <point x="759" y="315" type="line"/>
      <point x="598" y="537" type="line"/>
      <point x="438" y="315" type="line"/>
      <point x="309" y="409" type="line"/>
      <point x="470" y="631" type="line"/>
      <point x="209" y="714" type="line"/>
      <point x="261" y="865" type="line"/>
      <point x="521" y="782" type="line"/>
    </contour>
  </outline>
</glyph>
<glyph name="plus" format="2">
  <advance width="1200"/>
  <unicode hex="002B"/>
  <outline>
    <contour>
      <point x="528" y="1055" type="line"/>
      <point x="672" y="1055" type="line"/>
      <point x="672" y="744" type="line"/>
      <point x="984" y="744" type="line"/>
      <point x="984" y="600" type="line"/>
      <point x="672" y="600" type="line"/>
      <point x="672" y="290" type="line"/>
      <point x="528" y="290" type="line"/>
      <point x="528" y="600" type="line"/>
      <point x="216" y="600" type="line"/>
      <point x="216" y="744" type="line"/>
      <point x="528" y="744" type="line"/>
    </contour>
  </outline>
</glyph>
<glyph name="period" format="2">
  <advance width="1200"/>
  <unicode hex="002E"/>
  <anchor x="600" y="191" name="_top"/>
  <anchor x="600" y="-0" name="_bottom"/>
  <outline>
    <contour>
      <point x="500" y="0" type="line"/>
      <point x="700" y="0" type="line"/>
      <point x="700" y="192" type="line"/>
      <point x="500" y="192" type="line"/>
    </contour>
  </outline>
</glyph>
<glyph name="zero" format="2">
  <advance width="1200"/>
  <unicode hex="0030"/>
  <outline>
    <contour>
      <point x="321" y="1392" type="line"/>
      <point x="883" y="1392" type="line"/>
      <point x="1040" y="1155" type="line"/>
      <point x="1040" y="166" type="line"/>
      <point x="883" y="0" type="line"/>
      <point x="321" y="0" type="line"/>
      <point x="160" y="238" type="line"/>
      <point x="160" y="1227" type="line"/>
    </contour>
    <contour>
      <point x="320" y="1184" type="line"/>
      <point x="320" y="480" type="line"/>
      <point x="880" y="1057" type="line"/>
      <point x="880" y="1133" type="line"/>
      <point x="803" y="1248" type="line"/>
      <point x="380" y="1248" type="line"/>
    </contour>
    <contour>
      <point x="320" y="259" type="line"/>
      <point x="397" y="144" type="line"/>
      <point x="820" y="144" type="line"/>
      <point x="880" y="208" type="line"/>
      <point x="880" y="853" type="line"/>
      <point x="320" y="272" type="line"/>
    </contour>
  </outline>
</glyph>
<glyph name="three" format="2">
  <advance width="1200"/>
  <unicode hex="0033"/>
  <outline>
    <contour>
      <point x="160" y="1392" type="line"/>
      <point x="1040" y="1392" type="line"/>
      <point x="1040" y="1226" type="line"/>
      <point x="644" y="815" type="line"/>
      <point x="822" y="815" type="line"/>
      <point x="1040" y="492" type="line"/>
      <point x="1040" y="174" type="line"/>
      <point x="874" y="0" type="line"/>
      <point x="160" y="0" type="line"/>
      <point x="160" y="144" type="line"/>
      <point x="810" y="144" type="line"/>
      <point x="882" y="216" type="line"/>
      <point x="882" y="475" type="line"/>
      <point x="745" y="671" type="line"/>
      <point x="460" y="671" type="line"/>
      <point x="460" y="832" type="line"/>
      <point x="865" y="1248" type="line"/>
      <point x="160" y="1248" type="line"/>
    </contour>
  </outline>
</glyph>
<glyph name="five" format="2">
  <advance width="1200"/>
  <unicode hex="0035"/>
  <outline>
    <contour>
      <point x="160" y="1392" type="line"/>
      <point x="1000" y="1392" type="line"/>
      <point x="1000" y="1248" type="line"/>
      <point x="320" y="1248" type="line"/>
      <point x="320" y="981" type="line"/>
      <point x="332" y="960" type="line"/>
      <point x="820" y="960" type="line"/>
      <point x="1040" y="638" type="line"/>
      <point x="1040" y="174" type="line"/>
      <point x="874" y="0" type="line"/>
      <point x="160" y="0" type="line"/>
      <point x="160" y="144" type="line"/>
      <point x="808" y="144" type="line"/>
      <point x="880" y="216" type="line"/>
      <point x="880" y="621" type="line"/>
      <point x="744" y="816" type="line"/>
      <point x="258" y="816" type="line"/>
      <point x="160" y="961" type="line"/>
    </contour>
  </outline>
</glyph>
<glyph name="six" format="2">
  <advance width="1200"/>
  <unicode hex="0036"/>
  <outline>
    <contour>
      <point x="320" y="1393" type="line"/>
      <point x="880" y="1393" type="line"/>
      <point x="880" y="1249" type="line"/>
      <point x="380" y="1249" type="line"/>
      <point x="320" y="1185" type="line"/>
      <point x="320" y="671" type="line"/>
      <point x="462" y="815" type="line"/>
      <point x="955" y="815" type="line"/>
      <point x="1040" y="688" type="line"/>
      <point x="1040" y="234" type="line"/>
      <point x="812" y="0" type="line"/>
      <point x="320" y="0" type="line"/>
      <point x="160" y="242" type="line"/>
      <point x="160" y="1227" type="line"/>
    </contour>
    <contour>
      <point x="320" y="259" type="line"/>
      <point x="400" y="144" type="line"/>
      <point x="753" y="144" type="line"/>
      <point x="880" y="276" type="line"/>
      <point x="880" y="671" type="line"/>
      <point x="521" y="671" type="line"/>
      <point x="320" y="467" type="line"/>
    </contour>
  </outline>
</glyph>
<glyph name="seven" format="2">
  <advance width="1200"/>
  <unicode hex="0037"/>
  <outline>
    <contour>
      <point x="160" y="1392" type="line"/>
      <point x="1040" y="1392" type="line"/>
      <point x="1040" y="1133" type="line"/>
      <point x="480" y="560" type="line"/>
      <point x="480" y="0" type="line"/>
      <point x="320" y="0" type="line"/>
      <point x="320" y="603" type="line"/>
      <point x="880" y="1176" type="line"/>
      <point x="880" y="1248" type="line"/>
      <point x="160" y="1248" type="line"/>
    </contour>
  </outline>
</glyph>
<glyph name="nine" format="2">
  <advance width="1200"/>
  <unicode hex="0039"/>
  <outline>
    <contour>
      <point x="258" y="1392" type="line"/>
      <point x="828" y="1392" type="line"/>
      <point x="1040" y="1074" type="line"/>
      <point x="1040" y="293" type="line"/>
      <point x="781" y="0" type="line"/>
      <point x="240" y="0" type="line"/>
      <point x="240" y="144" type="line"/>
      <point x="715" y="144" type="line"/>
      <point x="880" y="335" type="line"/>
      <point x="880" y="671" type="line"/>
      <point x="371" y="671" type="line"/>
      <point x="160" y="985" type="line"/>
      <point x="160" y="1290" type="line"/>
    </contour>
    <contour>
      <point x="320" y="1006" type="line"/>
      <point x="447" y="815" type="line"/>
      <point x="880" y="815" type="line"/>
      <point x="880" y="1052" type="line"/>
      <point x="748" y="1248" type="line"/>
      <point x="320" y="1248" type="line"/>
    </contour>
  </outline>
</glyph>
<glyph name="equal" format="2">
  <advance width="1200"/>
  <unicode hex="003D"/>
  <outline>
    <contour>
      <point x="970" y="886" type="line"/>
      <point x="970" y="726" type="line"/>
      <point x="230" y="726" type="line"/>
      <point x="230" y="886" type="line"/>
    </contour>
    <contour>
      <point x="970" y="518" type="line"/>
      <point x="970" y="358" type="line"/>
      <point x="230" y="358" type="line"/>
      <point x="230" y="518" type="line"/>
    </contour>
  </outline>
</glyph>
<glyph name="greater" format="2">
  <advance width="1200"/>
  <unicode hex="003E"/>
  <outline>
    <contour>
      <point x="364" y="1270" type="line"/>
      <point x="937" y="716" type="line"/>
      <point x="937" y="631" type="line"/>
      <point x="360" y="74" type="line"/>
      <point x="263" y="178" type="line"/>
      <point x="774" y="674" type="line"/>
      <point x="263" y="1165" type="line"/>
    </contour>
  </outline>
</glyph>
<glyph name="A" format="2">
  <advance width="1200"/>
  <unicode hex="0041"/>
  <anchor x="600" y="1550" name="top"/>
  <anchor x="600" y="-150" name="bottom"/>
  <outline>
    <contour>
      <point x="484" y="1400" type="line"/>
      <point x="1040" y="1400" type="line"/>
      <point x="1040" y="0" type="line"/>
      <point x="880" y="0" type="line"/>
      <point x="880" y="640" type="line"/>
      <point x="320" y="640" type="line"/>
      <point x="320" y="0" type="line"/>
      <point x="160" y="0" type="line"/>
      <point x="160" y="1065" type="line"/>
    </contour>
    <contour>
      <point x="320" y="1027" type="line"/>
      <point x="320" y="784" type="line"/>
      <point x="880" y="784" type="line"/>
      <point x="880" y="1256" type="line"/>
      <point x="541" y="1256" type="line"/>
    </contour>
  </outline>
</glyph>
<glyph name="B" format="2">
  <advance width="1200"/>
  <unicode hex="0042"/>
  <anchor x="600" y="1543" name="top"/>
  <anchor x="600" y="-150" name="bottom"/>
  <outline>
    <contour>
      <point x="160" y="1393" type="line"/>
      <point x="927" y="1393" type="line"/>
      <point x="1020" y="1257" type="line"/>
      <point x="1020" y="1074" type="line"/>
      <point x="774" y="815" type="line"/>
      <point x="855" y="815" type="line"/>
      <point x="1040" y="544" type="line"/>
      <point x="1040" y="98" type="line"/>
      <point x="880" y="0" type="line"/>
      <point x="160" y="0" type="line"/>
    </contour>
    <contour>
      <point x="320" y="1249" type="line"/>
      <point x="320" y="815" type="line"/>
      <point x="574" y="815" type="line"/>
      <point x="860" y="1113" type="line"/>
      <point x="860" y="1249" type="line"/>
    </contour>
    <contour>
      <point x="320" y="671" type="line"/>
      <point x="320" y="144" type="line"/>
      <point x="880" y="144" type="line"/>
      <point x="880" y="527" type="line"/>
      <point x="778" y="671" type="line"/>
    </contour>
  </outline>
</glyph>
<glyph name="E" format="2">
  <advance width="1200"/>
  <unicode hex="0045"/>
  <anchor x="600" y="1542" name="top"/>
  <anchor x="600" y="-150" name="bottom"/>
  <outline>
    <contour>
      <point x="321" y="1392" type="line"/>
      <point x="1040" y="1392" type="line"/>
      <point x="1040" y="1248" type="line"/>
      <point x="380" y="1248" type="line"/>
      <point x="320" y="1184" type="line"/>
      <point x="320" y="815" type="line"/>
      <point x="780" y="815" type="line"/>
      <point x="780" y="671" type="line"/>
      <point x="320" y="671" type="line"/>
      <point x="320" y="259" type="line"/>
      <point x="397" y="144" type="line"/>
      <point x="1040" y="144" type="line"/>
      <point x="1040" y="0" type="line"/>
      <point x="320" y="0" type="line"/>
      <point x="160" y="238" type="line"/>
      <point x="160" y="1227" type="line"/>
    </contour>
  </outline>
</glyph>
<glyph name="F" format="2">
  <advance width="1200"/>
  <unicode hex="0046"/>
  <anchor x="600" y="1542" name="top"/>
  <anchor x="240" y="-150" name="bottom"/>
  <outline>
    <contour>
      <point x="355" y="1392" type="line"/>
      <point x="1040" y="1392" type="line"/>
      <point x="1040" y="1248" type="line"/>
      <point x="414" y="1248" type="line"/>
      <point x="320" y="1150" type="line"/>
      <point x="320" y="815" type="line"/>
      <point x="780" y="815" type="line"/>
      <point x="780" y="671" type="line"/>
      <point x="320" y="671" type="line"/>
      <point x="320" y="0" type="line"/>
      <point x="160" y="0" type="line"/>
      <point x="160" y="1193" type="line"/>
    </contour>
  </outline>
</glyph>
<glyph name="I" format="2">
  <advance width="1200"/>
  <unicode hex="0049"/>
  <anchor x="600" y="1542" name="top"/>
  <anchor x="600" y="-150" name="bottom"/>
  <outline>
    <contour>
      <point x="160" y="1392" type="line"/>
      <point x="520" y="1392" type="line"/>
      <point x="601" y="1277" type="line"/>
      <point x="710" y="1392" type="line"/>
      <point x="1040" y="1392" type="line"/>
      <point x="1040" y="1247" type="line"/>
      <point x="769" y="1247" type="line"/>
      <point x="680" y="1154" type="line"/>
      <point x="680" y="145" type="line"/>
      <point x="1040" y="145" type="line"/>
      <point x="1040" y="0" type="line"/>
      <point x="160" y="0" type="line"/>
      <point x="160" y="145" type="line"/>
      <point x="520" y="145" type="line"/>
      <point x="520" y="1132" type="line"/>
      <point x="443" y="1247" type="line"/>
      <point x="160" y="1247" type="line"/>
    </contour>
  </outline>
</glyph>
<glyph name="J" format="2">
  <advance width="1200"/>
  <unicode hex="004A"/>
  <anchor x="800" y="1541" name="top"/>
  <anchor x="520" y="-294" name="bottom"/>
  <outline>
    <contour>
      <point x="160" y="1391" type="line"/>
      <point x="721" y="1391" type="line"/>
      <point x="880" y="1153" type="line"/>
      <point x="880" y="193" type="line"/>
      <point x="560" y="-144" type="line"/>
      <point x="320" y="-144" type="line"/>
      <point x="320" y="0" type="line"/>
      <point x="498" y="0" type="line"/>
      <point x="720" y="235" type="line"/>
      <point x="720" y="1135" type="line"/>
      <point x="645" y="1247" type="line"/>
      <point x="160" y="1247" type="line"/>
    </contour>
  </outline>
</glyph>
<glyph name="K" format="2">
  <advance width="1200"/>
  <unicode hex="004B"/>
  <anchor x="601" y="1542" name="top"/>
  <anchor x="601" y="-150" name="bottom"/>
  <outline>
    <contour>
      <point x="901" y="1392" type="line"/>
      <point x="1109" y="1392" type="line"/>
      <point x="566" y="840" type="line"/>
      <point x="1139" y="0" type="line"/>
      <point x="969" y="0" type="line"/>
      <point x="464" y="734" type="line"/>
      <point x="222" y="480" type="line"/>
      <point x="222" y="0" type="line"/>
      <point x="62" y="0" type="line"/>
      <point x="62" y="1392" type="line"/>
      <point x="222" y="1392" type="line"/>
      <point x="222" y="687" type="line"/>
    </contour>
  </outline>
</glyph>
<glyph name="M" format="2">
  <advance width="1200"/>
  <unicode hex="004D"/>
  <anchor x="600" y="1542" name="top"/>
  <anchor x="600" y="-150" name="bottom"/>
  <outline>
    <contour>
      <point x="160" y="1392" type="line"/>
      <point x="320" y="1392" type="line"/>
      <point x="320" y="1337" type="line"/>
      <point x="527" y="1028" type="line"/>
      <point x="880" y="1392" type="line"/>
      <point x="1040" y="1392" type="line"/>
      <point x="1040" y="0" type="line"/>
      <point x="880" y="0" type="line"/>
      <point x="880" y="1183" type="line"/>
      <point x="682" y="977" type="line"/>
      <point x="682" y="795" type="line"/>
      <point x="510" y="795" type="line"/>
      <point x="510" y="799" type="line"/>
      <point x="320" y="1082" type="line"/>
      <point x="320" y="0" type="line"/>
      <point x="160" y="0" type="line"/>
    </contour>
  </outline>
</glyph>
<glyph name="Q" format="2">
  <advance width="1200"/>
  <unicode hex="0051"/>
  <anchor x="600" y="1542" name="top"/>
  <anchor x="600" y="-150" name="bottom"/>
  <outline>
    <contour>
      <point x="323" y="1392" type="line"/>
      <point x="878" y="1392" type="line"/>
      <point x="1040" y="1154" type="line"/>
      <point x="1040" y="373" type="line"/>
      <point x="880" y="207" type="line"/>
      <point x="880" y="1136" type="line"/>
      <point x="804" y="1248" type="line"/>
      <point x="378" y="1248" type="line"/>
      <point x="320" y="1186" type="line"/>
      <point x="320" y="260" type="line"/>
      <point x="396" y="144" type="line"/>
      <point x="742" y="144" type="line"/>
      <point x="660" y="265" type="line"/>
      <point x="778" y="346" type="line"/>
      <point x="1011" y="0" type="line"/>
      <point x="894" y="-81" type="line"/>
      <point x="836" y="0" type="line"/>
      <point x="322" y="0" type="line"/>
      <point x="160" y="238" type="line"/>
      <point x="160" y="1226" type="line"/>
    </contour>
  </outline>
</glyph>
<glyph name="R" format="2">
  <advance width="1200"/>
  <unicode hex="0052"/>
  <anchor x="600" y="1542" name="top"/>
  <anchor x="600" y="-150" name="bottom"/>
  <outline>
    <contour>
      <point x="160" y="1392" type="line"/>
      <point x="827" y="1392" type="line"/>
      <point x="1040" y="1080" type="line"/>
      <point x="1040" y="881" type="line"/>
      <point x="845" y="680" type="line"/>
      <point x="1040" y="396" type="line"/>
      <point x="1040" y="0" type="line"/>
      <point x="880" y="0" type="line"/>
      <point x="880" y="378" type="line"/>
      <point x="680" y="671" type="line"/>
      <point x="477" y="671" type="line"/>
      <point x="320" y="768" type="line"/>
      <point x="320" y="0" type="line"/>
      <point x="160" y="0" type="line"/>
    </contour>
    <contour>
      <point x="320" y="1248" type="line"/>
      <point x="320" y="815" type="line"/>
      <point x="778" y="815" type="line"/>
      <point x="880" y="917" type="line"/>
      <point x="880" y="1057" type="line"/>
      <point x="748" y="1248" type="line"/>
    </contour>
  </outline>
</glyph>
<glyph name="W" format="2">
  <advance width="1200"/>
  <unicode hex="0057"/>
  <anchor x="600" y="1542" name="top"/>
  <anchor x="620" y="-150" name="bottom"/>
  <outline>
    <contour>
      <point x="120" y="1392" type="line"/>
      <point x="280" y="1392" type="line"/>
      <point x="280" y="236" type="line"/>
      <point x="335" y="144" type="line"/>
      <point x="384" y="144" type="line"/>
      <point x="520" y="284" type="line"/>
      <point x="520" y="815" type="line"/>
      <point x="680" y="815" type="line"/>
      <point x="680" y="344" type="line"/>
      <point x="817" y="144" type="line"/>
      <point x="865" y="144" type="line"/>
      <point x="920" y="203" type="line"/>
      <point x="920" y="1392" type="line"/>
      <point x="1080" y="1392" type="line"/>
      <point x="1080" y="165" type="line"/>
      <point x="920" y="0" type="line"/>
      <point x="740" y="0" type="line"/>
      <point x="617" y="182" type="line"/>
      <point x="444" y="0" type="line"/>
      <point x="280" y="0" type="line"/>
      <point x="120" y="238" type="line"/>
    </contour>
  </outline>
</glyph>
<glyph name="X" format="2">
  <advance width="1200"/>
  <unicode hex="0058"/>
  <anchor x="600" y="1542" name="top"/>
  <anchor x="600" y="-150" name="bottom"/>
  <outline>
    <contour>
      <point x="880" y="1392" type="line"/>
      <point x="1040" y="1392" type="line"/>
      <point x="1040" y="1019" type="line"/>
      <point x="840" y="815" type="line"/>
      <point x="1040" y="522" type="line"/>
      <point x="1040" y="0" type="line"/>
      <point x="880" y="0" type="line"/>
      <point x="880" y="502" type="line"/>
      <point x="760" y="670" type="line"/>
      <point x="553" y="670" type="line"/>
      <point x="320" y="428" type="line"/>
      <point x="320" y="0" type="line"/>
      <point x="160" y="0" type="line"/>
      <point x="160" y="472" type="line"/>
      <point x="360" y="675" type="line"/>
      <point x="160" y="969" type="line"/>
      <point x="160" y="1392" type="line"/>
      <point x="320" y="1392" type="line"/>
      <point x="320" y="989" type="line"/>
      <point x="435" y="815" type="line"/>
      <point x="648" y="815" type="line"/>
      <point x="880" y="1057" type="line"/>
    </contour>
  </outline>
</glyph>
<glyph name="bracketleft" format="2">
  <advance width="1200"/>
  <unicode hex="005B"/>
  <outline>
    <contour>
      <point x="322" y="1633" type="line"/>
      <point x="878" y="1633" type="line"/>
      <point x="878" y="1487" type="line"/>
      <point x="480" y="1487" type="line"/>
      <point x="480" y="-141" type="line"/>
      <point x="878" y="-141" type="line"/>
      <point x="878" y="-287" type="line"/>
      <point x="322" y="-287" type="line"/>
    </contour>
  </outline>
</glyph>
<glyph name="asciicircum" format="2">
  <advance width="1200"/>
  <unicode hex="005E"/>
  <outline>
    <contour>
      <point x="559" y="1680" type="line"/>
      <point x="641" y="1680" type="line"/>
      <point x="1149" y="1159" type="line"/>
      <point x="1046" y="1056" type="line"/>
      <point x="600" y="1518" type="line"/>
      <point x="154" y="1056" type="line"/>
      <point x="51" y="1159" type="line"/>
    </contour>
  </outline>
</glyph>
<glyph name="grave" format="2">
  <advance width="1200"/>
  <unicode hex="0060"/>
  <anchor x="600" y="1240" name="_top"/>
  <anchor x="600" y="1540" name="_bottom"/>
  <outline>
    <contour>
      <point x="766" y="1244" type="line"/>
      <point x="382" y="1429" type="line"/>
      <point x="462" y="1545" type="line"/>
      <point x="811" y="1317" type="line"/>
    </contour>
  </outline>
</glyph>
<glyph name="a" format="2">
  <advance width="1200"/>
  <unicode hex="0061"/>
  <anchor x="640" y="1206" name="top"/>
  <anchor x="600" y="-150" name="bottom"/>
  <outline>
    <contour>
      <point x="320" y="1056" type="line"/>
      <point x="920" y="1056" type="line"/>
      <point x="1040" y="879" type="line"/>
      <point x="1040" y="0" type="line"/>
      <point x="880" y="0" type="line"/>
      <point x="880" y="97" type="line"/>
      <point x="720" y="0" type="line"/>
      <point x="320" y="0" type="line"/>
      <point x="160" y="238" type="line"/>
      <point x="160" y="316" type="line"/>
      <point x="458" y="625" type="line"/>
      <point x="880" y="625" type="line"/>
      <point x="880" y="914" type="line"/>
      <point x="320" y="914" type="line"/>
    </contour>
    <contour>
      <point x="320" y="258" type="line"/>
      <point x="394" y="145" type="line"/>
      <point x="880" y="145" type="line"/>
      <point x="880" y="480" type="line"/>
      <point x="520" y="480" type="line"/>
      <point x="320" y="274" type="line"/>
    </contour>
  </outline>
</glyph>
<glyph name="d" format="2">
  <advance width="1200"/>
  <unicode hex="0064"/>
  <anchor x="600" y="1638" name="top"/>
  <anchor x="600" y="-150" name="bottom"/>
  <anchor x="60" y="744" name="left"/>
  <anchor x="1140" y="744" name="right"/>
  <anchor x="800" y="1200" name="middleTop"/>
  <outline>
    <contour>
      <point x="880" y="1488" type="line"/>
      <point x="1040" y="1488" type="line"/>
      <point x="1040" y="0" type="line"/>
      <point x="880" y="0" type="line"/>
      <point x="880" y="95" type="line"/>
      <point x="721" y="0" type="line"/>
      <point x="324" y="0" type="line"/>
      <point x="160" y="240" type="line"/>
      <point x="160" y="889" type="line"/>
      <point x="320" y="1057" type="line"/>
      <point x="721" y="1057" type="line"/>
      <point x="880" y="962" type="line"/>
    </contour>
    <contour>
      <point x="320" y="259" type="line"/>
      <point x="397" y="145" type="line"/>
      <point x="821" y="145" type="line"/>
      <point x="880" y="204" type="line"/>
      <point x="880" y="798" type="line"/>
      <point x="803" y="912" type="line"/>
      <point x="383" y="912" type="line"/>
      <point x="320" y="848" type="line"/>
    </contour>
  </outline>
</glyph>
<glyph name="g" format="2">
  <advance width="1200"/>
  <unicode hex="0067"/>
  <anchor x="600" y="1208" name="top"/>
  <anchor x="600" y="-534" name="bottom"/>
  <outline>
    <contour>
      <point x="450" y="0" type="line"/>
      <point x="336" y="-119" type="line"/>
      <point x="417" y="-238" type="line"/>
      <point x="712" y="-238" type="line"/>
      <point x="880" y="-60" type="line"/>
      <point x="842" y="0" type="line"/>
    </contour>
    <contour>
      <point x="336" y="820" type="line"/>
      <point x="336" y="436" type="line"/>
      <point x="718" y="436" type="line"/>
      <point x="880" y="490" type="line"/>
      <point x="880" y="804" type="line"/>
      <point x="804" y="912" type="line"/>
      <point x="423" y="912" type="line"/>
    </contour>
    <contour>
      <point x="723" y="290" type="line"/>
      <point x="417" y="290" type="line"/>
      <point x="342" y="215" type="line"/>
      <point x="385" y="146" type="line"/>
      <point x="920" y="146" type="line"/>
      <point x="1040" y="-43" type="line"/>
      <point x="1040" y="-103" type="line"/>
      <point x="774" y="-384" type="line"/>
      <point x="342" y="-384" type="line"/>
      <point x="176" y="-135" type="line"/>
      <point x="176" y="-76" type="line"/>
      <point x="290" y="38" type="line"/>
      <point x="160" y="231" type="line"/>
      <point x="263" y="334" type="line"/>
      <point x="176" y="388" type="line"/>
      <point x="176" y="863" type="line"/>
      <point x="363" y="1058" type="line"/>
      <point x="723" y="1058" type="line"/>
      <point x="880" y="961" type="line"/>
      <point x="880" y="1058" type="line"/>
      <point x="1040" y="1058" type="line"/>
      <point x="1040" y="485" type="line"/>
    </contour>
  </outline>
</glyph>
<glyph name="k" format="2">
  <advance width="1200"/>
  <unicode hex="006B"/>
  <anchor x="600" y="1637" name="top"/>
  <anchor x="600" y="-150" name="bottom"/>
  <outline>
    <contour>
      <point x="160" y="1487" type="line"/>
      <point x="320" y="1487" type="line"/>
      <point x="320" y="685" type="line"/>
      <point x="739" y="1117" type="line"/>
      <point x="937" y="1117" type="line"/>
      <point x="637" y="809" type="line"/>
      <point x="1040" y="213" type="line"/>
      <point x="1040" y="0" type="line"/>
      <point x="880" y="0" type="line"/>
      <point x="880" y="195" type="line"/>
      <point x="533" y="701" type="line"/>
      <point x="320" y="481" type="line"/>
      <point x="320" y="0" type="line"/>
      <point x="160" y="0" type="line"/>
    </contour>
  </outline>
</glyph>
<glyph name="r" format="2">
  <advance width="1200"/>
  <unicode hex="0072"/>
  <anchor x="609" y="1206" name="top"/>
  <anchor x="609" y="-150" name="bottom"/>
  <outline>
    <contour>
      <point x="160" y="1056" type="line"/>
      <point x="247" y="1056" type="line"/>
      <point x="437" y="943" type="line"/>
      <point x="545" y="1056" type="line"/>
      <point x="956" y="1056" type="line"/>
      <point x="1058" y="904" type="line"/>
      <point x="939" y="823" type="line"/>
      <point x="880" y="912" type="line"/>
      <point x="607" y="912" type="line"/>
      <point x="520" y="819" type="line"/>
      <point x="520" y="144" type="line"/>
      <point x="800" y="144" type="line"/>
      <point x="800" y="0" type="line"/>
      <point x="160" y="0" type="line"/>
      <point x="160" y="144" type="line"/>
      <point x="360" y="144" type="line"/>
      <point x="360" y="799" type="line"/>
      <point x="284" y="912" type="line"/>
      <point x="160" y="912" type="line"/>
    </contour>
  </outline>
</glyph>
<glyph name="t" format="2">
  <advance width="1200"/>
  <unicode hex="0074"/>
  <anchor x="560" y="1638" name="top"/>
  <anchor x="656" y="-130" name="bottom"/>
  <anchor x="552" y="644" name="middleTop"/>
  <outline>
    <contour>
      <point x="319" y="1488" type="line"/>
      <point x="479" y="1488" type="line"/>
      <point x="479" y="1057" type="line"/>
      <point x="801" y="1057" type="line"/>
      <point x="801" y="912" type="line"/>
      <point x="479" y="912" type="line"/>
      <point x="479" y="259" type="line"/>
      <point x="555" y="145" type="line"/>
      <point x="759" y="145" type="line"/>
      <point x="878" y="264" type="line"/>
      <point x="959" y="145" type="line"/>
      <point x="824" y="0" type="line"/>
      <point x="479" y="0" type="line"/>
      <point x="319" y="235" type="line"/>
      <point x="319" y="912" type="line"/>
      <point x="160" y="912" type="line"/>
      <point x="160" y="1057" type="line"/>
      <point x="319" y="1057" type="line"/>
    </contour>
  </outline>
</glyph>
<glyph name="v" format="2">
  <advance width="1200"/>
  <unicode hex="0076"/>
  <anchor x="600" y="1197" name="top"/>
  <anchor x="600" y="-150" name="bottom"/>
  <outline>
    <contour>
      <point x="880" y="1057" type="line"/>
      <point x="1040" y="1057" type="line"/>
      <point x="1040" y="450" type="line"/>
      <point x="607" y="0" type="line"/>
      <point x="468" y="0" type="line"/>
      <point x="160" y="457" type="line"/>
      <point x="160" y="1057" type="line"/>
      <point x="320" y="1057" type="line"/>
      <point x="320" y="479" type="line"/>
      <point x="545" y="142" type="line"/>
      <point x="880" y="490" type="line"/>
    </contour>
  </outline>
</glyph>
<glyph name="y" format="2">
  <advance width="1200"/>
  <unicode hex="0079"/>
  <anchor x="600" y="1196" name="top"/>
  <anchor x="600" y="-583" name="bottom"/>
  <outline>
    <contour>
      <point x="880" y="1056" type="line"/>
      <point x="1040" y="1056" type="line"/>
      <point x="1040" y="-97" type="line"/>
      <point x="718" y="-433" type="line"/>
      <point x="160" y="-433" type="line"/>
      <point x="160" y="-288" type="line"/>
      <point x="653" y="-288" type="line"/>
      <point x="880" y="-56" type="line"/>
      <point x="880" y="3" type="line"/>
      <point x="358" y="3" type="line"/>
      <point x="160" y="293" type="line"/>
      <point x="160" y="1056" type="line"/>
      <point x="320" y="1056" type="line"/>
      <point x="320" y="312" type="line"/>
      <point x="437" y="144" type="line"/>
      <point x="880" y="144" type="line"/>
    </contour>
  </outline>
</glyph>
<glyph name="bar" format="2">
  <advance width="1200"/>
  <unicode hex="007C"/>
  <outline>
    <contour>
      <point x="520" y="-240" type="line"/>
      <point x="520" y="1634" type="line"/>
      <point x="680" y="1634" type="line"/>
      <point x="680" y="-240" type="line"/>
    </contour>
  </outline>
</glyph>
<glyph name="braceright" format="2">
  <advance width="1200"/>
  <unicode hex="007D"/>
  <outline>
    <contour>
      <point x="322" y="1633" type="line"/>
      <point x="661" y="1633" type="line"/>
      <point x="761" y="1528" type="line"/>
      <point x="761" y="1036" type="line"/>
      <point x="1112" y="673" type="line"/>
      <point x="761" y="310" type="line"/>
      <point x="761" y="-182" type="line"/>
      <point x="661" y="-287" type="line"/>
      <point x="322" y="-287" type="line"/>
      <point x="322" y="-141" type="line"/>
      <point x="603" y="-141" type="line" name=".hr01"/>
      <point x="603" y="351" type="line"/>
      <point x="913" y="673" type="line"/>
      <point x="603" y="995" type="line"/>
      <point x="603" y="1487" type="line"/>
      <point x="322" y="1487" type="line" name=".hr02"/>
    </contour>
  </outline>
</glyph>
<glyph name="asciitilde" format="2">
  <advance width="1200"/>
  <unicode hex="007E"/>
  <anchor x="600" y="1510" name="top"/>
  <anchor x="600" y="1281" name="bottom"/>
  <outline>
    <contour>
      <point x="936" y="813" type="line"/>
      <point x="999" y="705" type="line"/>
      <point x="794" y="583" type="line"/>
      <point x="433" y="685" type="line"/>
      <point x="270" y="586" type="line"/>
      <point x="207" y="694" type="line"/>
      <point x="412" y="816" type="line"/>
      <point x="779" y="718" type="line"/>
    </contour>
  </outline>
</glyph>
<glyph name="exclamdown" format="2">
  <advance width="1200"/>
  <unicode hex="00A1"/>
  <outline>
    <contour>
      <point x="703" y="918" type="line"/>
      <point x="497" y="918" type="line"/>
      <point x="497" y="1101" type="line"/>
      <point x="703" y="1101" type="line"/>
    </contour>
    <contour>
      <point x="520" y="674" type="line" name=".hr01"/>
      <point x="684" y="674" type="line"/>
      <point x="684" y="-334" type="line"/>
      <point x="520" y="-334" type="line"/>
    </contour>
  </outline>
</glyph>
<glyph name="currency" format="2">
  <advance width="1200"/>
  <unicode hex="00A4"/>
  <outline>
    <contour>
      <point x="918" y="1082" type="line"/>
      <point x="1019" y="980" type="line"/>
      <point x="876" y="837" type="line"/>
      <point x="918" y="796" type="line"/>
      <point x="918" y="533" type="line"/>
      <point x="876" y="487" type="line"/>
      <point x="1019" y="348" type="line"/>
      <point x="918" y="247" type="line"/>
      <point x="775" y="386" type="line"/>
      <point x="734" y="345" type="line"/>
      <point x="466" y="345" type="line"/>
      <point x="425" y="386" type="line"/>
      <point x="282" y="247" type="line"/>
      <point x="181" y="348" type="line"/>
      <point x="324" y="487" type="line"/>
      <point x="282" y="533" type="line"/>
      <point x="282" y="796" type="line"/>
      <point x="324" y="837" type="line"/>
      <point x="181" y="980" type="line"/>
      <point x="282" y="1082" type="line"/>
      <point x="425" y="939" type="line"/>
      <point x="466" y="980" type="line"/>
      <point x="734" y="980" type="line"/>
      <point x="775" y="939" type="line"/>
    </contour>
    <contour>
      <point x="673" y="845" type="line"/>
      <point x="523" y="845" type="line"/>
      <point x="421" y="740" type="line"/>
      <point x="421" y="589" type="line"/>
      <point x="523" y="484" type="line"/>
      <point x="673" y="484" type="line"/>
      <point x="779" y="589" type="line"/>
      <point x="779" y="740" type="line"/>
    </contour>
  </outline>
</glyph>
<glyph name="brokenbar" format="2">
  <advance width="1200"/>
  <unicode hex="00A6"/>
  <outline>
    <contour>
      <point x="680" y="1632" type="line"/>
      <point x="680" y="960" type="line"/>
      <point x="520" y="960" type="line"/>
      <point x="520" y="1632" type="line"/>
    </contour>
    <contour>
      <point x="680" y="480" type="line"/>
      <point x="680" y="-192" type="line"/>
      <point x="520" y="-192" type="line"/>
      <point x="520" y="480" type="line"/>
    </contour>
  </outline>
</glyph>
<glyph name="section" format="2">
  <advance width="1200"/>
  <unicode hex="00A7"/>
  <outline>
    <contour>
      <point x="352" y="1536" type="line"/>
      <point x="840" y="1536" type="line"/>
      <point x="944" y="1382" type="line"/>
      <point x="846" y="1280" type="line"/>
      <point x="767" y="1396" type="line"/>
      <point x="420" y="1396" type="line"/>
      <point x="360" y="1343" type="line"/>
      <point x="360" y="1212" type="line"/>
      <point x="434" y="1104" type="line"/>
      <point x="843" y="1104" type="line"/>
      <point x="980" y="901" type="line"/>
      <point x="980" y="630" type="line"/>
      <point x="899" y="541" type="line"/>
      <point x="980" y="421" type="line"/>
      <point x="980" y="150" type="line"/>
      <point x="844" y="0" type="line"/>
      <point x="279" y="0" type="line"/>
      <point x="200" y="123" type="line"/>
      <point x="298" y="224" type="line"/>
      <point x="352" y="144" type="line"/>
      <point x="778" y="144" type="line"/>
      <point x="820" y="190" type="line"/>
      <point x="820" y="398" type="line"/>
      <point x="762" y="480" type="line"/>
      <point x="352" y="480" type="line"/>
      <point x="200" y="708" type="line"/>
      <point x="200" y="957" type="line"/>
      <point x="294" y="1048" type="line"/>
      <point x="200" y="1188" type="line"/>
      <point x="200" y="1388" type="line"/>
    </contour>
    <contour>
      <point x="434" y="624" type="line"/>
      <point x="778" y="624" type="line"/>
      <point x="820" y="670" type="line"/>
      <point x="820" y="878" type="line"/>
      <point x="762" y="960" type="line"/>
      <point x="415" y="960" type="line"/>
      <point x="360" y="912" type="line"/>
      <point x="360" y="732" type="line"/>
    </contour>
  </outline>
</glyph>
<glyph name="guillemotleft" format="2">
  <advance width="1200"/>
  <unicode hex="00AB"/>
  <outline>
    <contour>
      <point x="981" y="176" type="line"/>
      <point x="910" y="133" type="line"/>
      <point x="573" y="541" type="line"/>
      <point x="573" y="639" type="line"/>
      <point x="910" y="1051" type="line"/>
      <point x="981" y="1007" type="line"/>
      <point x="711" y="591" type="line"/>
    </contour>
    <contour>
      <point x="627" y="176" type="line"/>
      <point x="556" y="133" type="line"/>
      <point x="219" y="541" type="line"/>
      <point x="219" y="639" type="line"/>
      <point x="556" y="1051" type="line"/>
      <point x="627" y="1007" type="line"/>
      <point x="357" y="591" type="line"/>
    </contour>
  </outline>
</glyph>
<glyph name="questiondown" format="2">
  <advance width="1200"/>
  <unicode hex="00BF"/>
  <outline>
    <contour>
      <point x="881" y="-334" type="line"/>
      <point x="323" y="-334" type="line"/>
      <point x="80" y="32" type="line"/>
      <point x="520" y="491" type="line"/>
      <point x="520" y="674" type="line"/>
      <point x="684" y="674" type="line"/>
      <point x="684" y="454" type="line"/>
      <point x="262" y="18" type="line"/>
      <point x="403" y="-188" type="line"/>
      <point x="820" y="-188" type="line"/>
      <point x="1041" y="37" type="line"/>
      <point x="1120" y="-85" type="line"/>
    </contour>
    <contour>
      <point x="703" y="1101" type="line" name=".hr01"/>
      <point x="703" y="918" type="line"/>
      <point x="497" y="918" type="line"/>
      <point x="497" y="1101" type="line"/>
    </contour>
  </outline>
</glyph>
<glyph name="multiply" format="2">
  <advance width="1200"/>
  <unicode hex="00D7"/>
  <outline>
    <contour>
      <point x="820" y="993" type="line"/>
      <point x="922" y="891" type="line"/>
      <point x="701" y="672" type="line"/>
      <point x="922" y="451" type="line"/>
      <point x="820" y="349" type="line"/>
      <point x="599" y="570" type="line"/>
      <point x="380" y="351" type="line"/>
      <point x="278" y="453" type="line"/>
      <point x="498" y="672" type="line"/>
      <point x="277" y="893" type="line"/>
      <point x="379" y="994" type="line"/>
      <point x="600" y="774" type="line"/>
    </contour>
  </outline>
</glyph>
<glyph name="thorn" format="2">
  <advance width="1200"/>
  <unicode hex="00FE"/>
  <anchor x="600" y="1638" name="top"/>
  <anchor x="600" y="-150" name="bottom"/>
  <outline>
    <contour>
      <point x="160" y="1488" type="line"/>
      <point x="320" y="1488" type="line"/>
      <point x="320" y="961" type="line"/>
      <point x="478" y="1057" type="line"/>
      <point x="878" y="1057" type="line"/>
      <point x="1040" y="816" type="line"/>
      <point x="1040" y="168" type="line"/>
      <point x="878" y="0" type="line"/>
      <point x="483" y="0" type="line"/>
      <point x="320" y="95" type="line"/>
      <point x="320" y="-380" type="line"/>
      <point x="160" y="-380" type="line"/>
    </contour>
    <contour>
      <point x="320" y="848" type="line"/>
      <point x="320" y="145" type="line"/>
      <point x="820" y="145" type="line"/>
      <point x="880" y="208" type="line"/>
      <point x="880" y="797" type="line"/>
      <point x="802" y="912" type="line"/>
      <point x="383" y="912" type="line"/>
    </contour>
  </outline>
</glyph>
<glyph name="IJ" format="2">
  <advance width="1200"/>
  <unicode hex="0132"/>
  <outline>
    <contour>
      <point x="40" y="1394" type="line"/>
      <point x="400" y="1394" type="line"/>
      <point x="481" y="1280" type="line"/>
      <point x="590" y="1394" type="line"/>
      <point x="1160" y="1394" type="line"/>
      <point x="1160" y="1250" type="line"/>
      <point x="1040" y="1250" type="line"/>
      <point x="1040" y="0" type="line"/>
      <point x="720" y="-337" type="line"/>
      <point x="400" y="-337" type="line"/>
      <point x="400" y="-193" type="line"/>
      <point x="658" y="-193" type="line"/>
      <point x="880" y="42" type="line"/>
      <point x="880" y="1138" type="line"/>
      <point x="964" y="1250" type="line"/>
      <point x="649" y="1250" type="line"/>
      <point x="560" y="1157" type="line"/>
      <point x="560" y="0" type="line"/>
      <point x="400" y="0" type="line"/>
      <point x="400" y="1135" type="line"/>
      <point x="323" y="1250" type="line"/>
      <point x="40" y="1250" type="line"/>
    </contour>
  </outline>
</glyph>
<glyph name="ij" format="2">
  <advance width="1200"/>
  <unicode hex="0133"/>
  <outline>
    <contour>
      <point x="260" y="1297" type="line"/>
      <point x="260" y="1490" type="line"/>
      <point x="460" y="1490" type="line"/>
      <point x="460" y="1297" type="line"/>
    </contour>
    <contour>
      <point x="741" y="1297" type="line"/>
      <point x="741" y="1490" type="line"/>
      <point x="941" y="1490" type="line"/>
      <point x="941" y="1297" type="line"/>
    </contour>
    <contour>
      <point x="760" y="1056" type="line" name=".hr01"/>
      <point x="920" y="1056" type="line"/>
      <point x="920" y="-97" type="line"/>
      <point x="596" y="-432" type="line"/>
      <point x="361" y="-432" type="line"/>
      <point x="361" y="-288" type="line"/>
      <point x="537" y="-288" type="line"/>
      <point x="760" y="-56" type="line"/>
      <point x="760" y="-28" type="line"/>
      <point x="280" y="144" type="line"/>
      <point x="280" y="1055" type="line"/>
      <point x="440" y="1055" type="line"/>
      <point x="440" y="240" type="line"/>
      <point x="760" y="125" type="line"/>
    </contour>
  </outline>
</glyph>
<glyph name="eng" format="2">
  <advance width="1200"/>
  <unicode hex="014B"/>
  <anchor x="725.5" y="1300" name="top"/>
  <outline>
    <component base="n"/>
    <contour>
      <point x="1040" y="378" type="line"/>
      <point x="1040" y="-88" type="line"/>
      <point x="716" y="-422" type="line"/>
      <point x="442" y="-422" type="line"/>
      <point x="442" y="-278" type="line"/>
      <point x="657" y="-278" type="line"/>
      <point x="880" y="-47" type="line"/>
      <point x="880" y="359" type="line"/>
    </contour>
  </outline>
</glyph>
<glyph name="OE" format="2">
  <advance width="1200"/>
  <unicode hex="0152"/>
  <anchor x="600" y="1386" name="t.uni0342"/>
  <anchor x="600" y="0" name="m.uni0345"/>
  <outline>
    <contour>
      <point x="160" y="1184" type="line"/>
      <point x="160" y="259" type="line"/>
      <point x="237" y="144" type="line"/>
      <point x="541" y="144" type="line"/>
      <point x="600" y="208" type="line"/>
      <point x="600" y="1133" type="line"/>
      <point x="524" y="1248" type="line"/>
      <point x="220" y="1248" type="line"/>
    </contour>
    <contour>
      <point x="760" y="671" type="line"/>
      <point x="760" y="166" type="line"/>
      <point x="739" y="144" type="line"/>
      <point x="1200" y="144" type="line"/>
      <point x="1200" y="0" type="line"/>
      <point x="162" y="0" type="line"/>
      <point x="0" y="238" type="line"/>
      <point x="0" y="1226" type="line"/>
      <point x="161" y="1392" type="line"/>
      <point x="1200" y="1392" type="line"/>
      <point x="1200" y="1248" type="line"/>
      <point x="698" y="1248" type="line"/>
      <point x="760" y="1154" type="line"/>
      <point x="760" y="815" type="line"/>
      <point x="1080" y="815" type="line"/>
      <point x="1080" y="671" type="line"/>
    </contour>
  </outline>
</glyph>
<glyph name="florin" format="2">
  <advance width="1200"/>
  <unicode hex="0192"/>
  <outline>
    <contour>
      <point x="77" y="-188" type="line"/>
      <point x="304" y="45" type="line"/>
      <point x="304" y="720" type="line"/>
      <point x="161" y="720" type="line"/>
      <point x="161" y="866" type="line"/>
      <point x="304" y="866" type="line"/>
      <point x="304" y="1286" type="line"/>
      <point x="498" y="1488" type="line"/>
      <point x="1001" y="1488" type="line"/>
      <point x="1123" y="1310" type="line"/>
      <point x="1020" y="1205" type="line"/>
      <point x="923" y="1345" type="line"/>
      <point x="557" y="1345" type="line"/>
      <point x="460" y="1246" type="line"/>
      <point x="460" y="866" type="line"/>
      <point x="880" y="866" type="line"/>
      <point x="880" y="720" type="line"/>
      <point x="460" y="720" type="line"/>
      <point x="460" y="1" type="line"/>
      <point x="459" y="1" type="line"/>
      <point x="156" y="-305" type="line"/>
    </contour>
  </outline>
</glyph>
<glyph name="caron" format="2">
  <advance width="1200"/>
  <unicode hex="02C7"/>
  <outline>
    <contour>
      <point x="846" y="1563" type="line"/>
      <point x="911" y="1493" type="line"/>
      <point x="646" y="1268" type="line"/>
      <point x="557" y="1268" type="line"/>
      <point x="290" y="1493" type="line"/>
      <point x="360" y="1563" type="line"/>
      <point x="603" y="1383" type="line"/>
    </contour>
  </outline>
</glyph>
<glyph name="breve" format="2">
  <advance width="1200"/>
  <unicode hex="02D8"/>
  <anchor x="600" y="1300" name="_top"/>
  <anchor x="600" y="1609" name="_bottom"/>
  <outline>
    <contour>
      <point x="280" y="1500" type="line"/>
      <point x="480" y="1300" type="line"/>
      <point x="721" y="1300" type="line"/>
      <point x="920" y="1500" type="line"/>
      <point x="920" y="1605" type="line"/>
      <point x="761" y="1605" type="line"/>
      <point x="761" y="1420" type="line"/>
      <point x="440" y="1420" type="line"/>
      <point x="440" y="1605" type="line"/>
      <point x="280" y="1605" type="line"/>
    </contour>
  </outline>
</glyph>
<glyph name="acutecomb" format="2">
  <advance width="1200"/>
  <unicode hex="0301"/>
  <anchor x="600" y="1290" name="_top"/>
  <anchor x="600" y="1570" name="_bottom"/>
  <outline>
    <contour>
      <point x="758" y="1571" type="line"/>
      <point x="822" y="1455" type="line"/>
      <point x="420" y="1290" type="line"/>
      <point x="378" y="1360" type="line"/>
    </contour>
  </outline>
</glyph>
<glyph name="macroncomb" format="2">
  <advance width="1200"/>
  <unicode hex="0304"/>
  <anchor x="603" y="1230" name="_top"/>
  <anchor x="603" y="1370" name="_bottom"/>
  <outline>
    <contour>
      <point x="863" y="1227" type="line"/>
      <point x="343" y="1227" type="line"/>
      <point x="343" y="1371" type="line"/>
      <point x="863" y="1371" type="line"/>
    </contour>
  </outline>
</glyph>
<glyph name="dotaccentcomb" format="2">
  <advance width="1200"/>
  <unicode hex="0307"/>
  <anchor x="600" y="1300" name="_top"/>
  <anchor x="600" y="1490" name="_bottom"/>
  <anchor x="696" y="1396" name="_left"/>
  <anchor x="496" y="1396" name="_right"/>
  <outline>
    <contour>
      <point x="500" y="1300" type="line"/>
      <point x="700" y="1300" type="line"/>
      <point x="700" y="1492" type="line"/>
      <point x="500" y="1492" type="line"/>
    </contour>
  </outline>
</glyph>
<glyph name="candraBinducomb" format="2">
  <advance width="1200"/>
  <unicode hex="0310"/>
  <anchor x="600" y="1300" name="_top"/>
  <anchor x="600" y="1800" name="_bottom"/>
  <outline>
    <contour>
      <point x="280" y="1500" type="line"/>
      <point x="480" y="1300" type="line"/>
      <point x="721" y="1300" type="line"/>
      <point x="920" y="1500" type="line"/>
      <point x="920" y="1605" type="line"/>
      <point x="761" y="1605" type="line"/>
      <point x="761" y="1420" type="line"/>
      <point x="440" y="1420" type="line"/>
      <point x="440" y="1605" type="line"/>
      <point x="280" y="1605" type="line"/>
    </contour>
    <contour>
      <point x="500" y="1605" type="line"/>
      <point x="700" y="1605" type="line"/>
      <point x="700" y="1797" type="line"/>
      <point x="500" y="1797" type="line"/>
    </contour>
  </outline>
</glyph>
<glyph name="commaabovecomb" format="2">
  <advance width="1200"/>
  <unicode hex="0313"/>
  <anchor x="600" y="1160" name="_top"/>
  <anchor x="600" y="1550" name="_bottom"/>
  <outline>
    <contour>
      <point x="451" y="1209" type="line"/>
      <point x="619" y="1544" type="line"/>
      <point x="746" y="1475" type="line"/>
      <point x="540" y="1160" type="line"/>
    </contour>
  </outline>
</glyph>
<glyph name="acutebelowcomb" format="2">
  <advance width="1200"/>
  <unicode hex="0317"/>
  <anchor x="600" y="-440" name="_top"/>
  <anchor x="600" y="-160" name="_bottom"/>
  <outline>
    <contour>
      <point x="758" y="-162" type="line"/>
      <point x="822" y="-278" type="line"/>
      <point x="420" y="-443" type="line"/>
      <point x="378" y="-373" type="line"/>
    </contour>
  </outline>
</glyph>
<glyph name="commaaccentcomb" format="2">
  <advance width="1200"/>
  <unicode hex="0326"/>
  <anchor x="600" y="330" name="_top"/>
  <anchor x="600" y="1020" name="_bottom"/>
  <outline>
    <contour>
      <point x="460" y="1024" type="line"/>
      <point x="740" y="1024" type="line"/>
      <point x="740" y="503" type="line"/>
      <point x="567" y="328" type="line"/>
      <point x="485" y="453" type="line"/>
      <point x="580" y="553" type="line" name=".hr01"/>
      <point x="580" y="760" type="line"/>
      <point x="460" y="760" type="line" name=".hr02"/>
    </contour>
  </outline>
</glyph>
<glyph name="mu" format="2">
  <advance width="1200"/>
  <unicode hex="03BC"/>
  <unicode hex="00B5"/>
  <outline>
    <contour>
      <point x="840" y="1056" type="line"/>
      <point x="1000" y="1056" type="line"/>
      <point x="1000" y="0" type="line"/>
      <point x="843" y="0" type="line"/>
      <point x="843" y="97" type="line"/>
      <point x="681" y="0" type="line"/>
      <point x="362" y="0" type="line"/>
      <point x="344" y="26" type="line"/>
      <point x="344" y="-428" type="line"/>
      <point x="200" y="-428" type="line"/>
      <point x="200" y="1056" type="line"/>
      <point x="360" y="1056" type="line" name=".hr01"/>
      <point x="360" y="258" type="line"/>
      <point x="437" y="145" type="line"/>
      <point x="782" y="145" type="line"/>
      <point x="840" y="206" type="line"/>
    </contour>
  </outline>
</glyph>
<glyph name="quoteright" format="2">
  <advance width="1200"/>
  <unicode hex="2019"/>
  <anchor x="520" y="1430" name="left"/>
  <anchor x="680" y="1430" name="right"/>
  <outline>
    <contour>
      <point x="560" y="1632" type="line"/>
      <point x="720" y="1632" type="line"/>
      <point x="720" y="1326" type="line"/>
      <point x="594" y="1196" type="line"/>
      <point x="558" y="1251" type="line"/>
      <point x="640" y="1338" type="line"/>
      <point x="640" y="1447" type="line"/>
      <point x="560" y="1447" type="line" name=".hr01"/>
    </contour>
  </outline>
</glyph>
<glyph name="quotesinglbase" format="2">
  <advance width="1200"/>
  <unicode hex="201A"/>
  <outline>
    <contour>
      <point x="460" y="265" type="line"/>
      <point x="740" y="265" type="line"/>
      <point x="740" y="-157" type="line"/>
      <point x="568" y="-335" type="line"/>
      <point x="487" y="-211" type="line"/>
      <point x="580" y="-113" type="line" name=".hr01"/>
      <point x="580" y="0" type="line"/>
      <point x="460" y="0" type="line" name=".hr02"/>
    </contour>
  </outline>
</glyph>
<glyph name="quotedblleft" format="2">
  <advance width="1200"/>
  <unicode hex="201C"/>
  <outline>
    <contour>
      <point x="416" y="1653" type="line"/>
      <point x="493" y="1533" type="line"/>
      <point x="400" y="1434" type="line"/>
      <point x="400" y="1319" type="line"/>
      <point x="520" y="1319" type="line" name=".hr01"/>
      <point x="520" y="1056" type="line"/>
      <point x="240" y="1056" type="line"/>
      <point x="240" y="1472" type="line"/>
    </contour>
    <contour>
      <point x="856" y="1653" type="line"/>
      <point x="933" y="1533" type="line"/>
      <point x="840" y="1434" type="line"/>
      <point x="840" y="1319" type="line"/>
      <point x="960" y="1319" type="line" name=".hr02"/>
      <point x="960" y="1056" type="line"/>
      <point x="680" y="1056" type="line"/>
      <point x="680" y="1472" type="line"/>
    </contour>
  </outline>
</glyph>
<glyph name="quotedblright" format="2">
  <advance width="1200"/>
  <unicode hex="201D"/>
  <outline>
    <contour>
      <point x="240" y="1632" type="line"/>
      <point x="520" y="1632" type="line"/>
      <point x="520" y="1210" type="line"/>
      <point x="348" y="1032" type="line"/>
      <point x="267" y="1156" type="line"/>
      <point x="360" y="1254" type="line" name=".hr01"/>
      <point x="360" y="1367" type="line"/>
      <point x="240" y="1367" type="line" name=".hr02"/>
    </contour>
    <contour>
      <point x="680" y="1632" type="line"/>
      <point x="960" y="1632" type="line"/>
      <point x="960" y="1210" type="line"/>
      <point x="788" y="1032" type="line"/>
      <point x="707" y="1156" type="line"/>
      <point x="800" y="1254" type="line" name=".hr03"/>
      <point x="800" y="1367" type="line"/>
      <point x="680" y="1367" type="line" name=".hr04"/>
    </contour>
  </outline>
</glyph>
<glyph name="quotedblbase" format="2">
  <advance width="1200"/>
  <unicode hex="201E"/>
  <outline>
    <contour>
      <point x="240" y="265" type="line"/>
      <point x="520" y="265" type="line"/>
      <point x="520" y="-157" type="line"/>
      <point x="348" y="-335" type="line"/>
      <point x="267" y="-211" type="line"/>
      <point x="360" y="-113" type="line" name=".hr01"/>
      <point x="360" y="0" type="line"/>
      <point x="240" y="0" type="line" name=".hr02"/>
    </contour>
    <contour>
      <point x="680" y="265" type="line"/>
      <point x="960" y="265" type="line"/>
      <point x="960" y="-157" type="line"/>
      <point x="788" y="-335" type="line"/>
      <point x="707" y="-211" type="line"/>
      <point x="800" y="-113" type="line" name=".hr03"/>
      <point x="800" y="0" type="line"/>
      <point x="680" y="0" type="line" name=".hr04"/>
    </contour>
  </outline>
</glyph>
<glyph name="perthousand" format="2">
  <advance width="1200"/>
  <unicode hex="2030"/>
  <outline>
    <contour>
      <point x="231" y="1167" type="line"/>
      <point x="365" y="1167" type="line"/>
      <point x="460" y="1074" type="line"/>
      <point x="460" y="939" type="line"/>
      <point x="365" y="847" type="line"/>
      <point x="231" y="847" type="line"/>
      <point x="140" y="938" type="line"/>
      <point x="140" y="1075" type="line"/>
    </contour>
    <contour>
      <point x="920" y="1313" type="line"/>
      <point x="1080" y="1313" type="line"/>
      <point x="1080" y="1062" type="line"/>
      <point x="280" y="239" type="line"/>
      <point x="280" y="40" type="line"/>
      <point x="120" y="40" type="line"/>
      <point x="120" y="278" type="line"/>
      <point x="920" y="1101" type="line"/>
    </contour>
    <contour>
      <point x="838" y="581" type="line"/>
      <point x="838" y="452" type="line"/>
      <point x="933" y="354" type="line"/>
      <point x="1062" y="354" type="line"/>
      <point x="1160" y="447" type="line"/>
      <point x="1160" y="579" type="line"/>
      <point x="1066" y="675" type="line"/>
      <point x="934" y="675" type="line"/>
    </contour>
    <contour>
      <point x="517" y="266" type="line"/>
      <point x="517" y="137" type="line"/>
      <point x="612" y="38" type="line"/>
      <point x="741" y="38" type="line"/>
      <point x="839" y="131" type="line"/>
      <point x="839" y="263" type="line"/>
      <point x="745" y="360" type="line"/>
      <point x="613" y="360" type="line"/>
    </contour>
  </outline>
</glyph>
<glyph name="guilsinglleft" format="2">
  <advance width="1200"/>
  <unicode hex="2039"/>
  <outline>
    <contour>
      <point x="804" y="176" type="line"/>
      <point x="733" y="133" type="line"/>
      <point x="396" y="541" type="line"/>
      <point x="396" y="639" type="line"/>
      <point x="733" y="1051" type="line"/>
      <point x="804" y="1007" type="line"/>
      <point x="534" y="591" type="line"/>
    </contour>
  </outline>
</glyph>
<glyph name="minus" format="2">
  <advance width="1200"/>
  <unicode hex="2212"/>
  <outline>
    <contour>
      <point x="960" y="697" type="line"/>
      <point x="960" y="553" type="line"/>
      <point x="240" y="553" type="line"/>
      <point x="240" y="697" type="line"/>
    </contour>
  </outline>
</glyph>
<glyph name="notequal" format="2">
  <advance width="1200"/>
  <unicode hex="2260"/>
  <outline>
    <contour>
      <point x="970" y="878" type="line"/>
      <point x="970" y="734" type="line"/>
      <point x="706" y="734" type="line"/>
      <point x="597" y="510" type="line"/>
      <point x="970" y="510" type="line"/>
      <point x="970" y="366" type="line"/>
      <point x="527" y="366" type="line"/>
      <point x="373" y="50" type="line"/>
      <point x="245" y="111" type="line"/>
      <point x="369" y="366" type="line"/>
      <point x="230" y="366" type="line"/>
      <point x="230" y="510" type="line"/>
      <point x="439" y="510" type="line"/>
      <point x="549" y="734" type="line"/>
      <point x="230" y="734" type="line"/>
      <point x="230" y="878" type="line"/>
      <point x="619" y="878" type="line"/>
      <point x="785" y="1219" type="line"/>
      <point x="913" y="1158" type="line"/>
      <point x="777" y="878" type="line"/>
    </contour>
  </outline>
</glyph>
<glyph name="lozenge" format="2">
  <advance width="1200"/>
  <unicode hex="25CA"/>
  <outline>
    <contour>
      <point x="675" y="1374" type="line"/>
      <point x="1050" y="689" type="line"/>
      <point x="675" y="0" type="line"/>
      <point x="519" y="0" type="line"/>
      <point x="150" y="686" type="line"/>
      <point x="519" y="1374" type="line"/>
    </contour>
    <contour>
      <point x="604" y="1277" type="line"/>
      <point x="596" y="1277" type="line"/>
      <point x="289" y="685" type="line"/>
      <point x="596" y="97" type="line"/>
      <point x="604" y="97" type="line"/>
      <point x="911" y="685" type="line"/>
    </contour>
  </outline>
</glyph>
<glyph name="uni2E3B" format="2">
  <advance width="1200"/>
  <unicode hex="2E3B"/>
  <outline>
    <contour>
      <point x="1200" y="592" type="line"/>
      <point x="0" y="592" type="line"/>
      <point x="0" y="752" type="line"/>
      <point x="1200" y="752" type="line"/>
    </contour>
  </outline>
</glyph>
<glyph name="uniEE01" format="2">
  <advance width="1200"/>
  <unicode hex="EE01"/>
  <outline>
    <contour>
      <point x="-10" y="-86" type="line"/>
      <point x="1210" y="-86" type="line"/>
      <point x="1210" y="-231" type="line"/>
      <point x="-10" y="-231" type="line"/>
    </contour>
    <contour>
      <point x="-10" y="1631" type="line"/>
      <point x="1210" y="1631" type="line"/>
      <point x="1210" y="1486" type="line"/>
      <point x="-10" y="1486" type="line"/>
    </contour>
  </outline>
</glyph>
<glyph name=".notdef" format="2">
  <advance width="1200"/>
  <outline>
    <component base="question" yOffset="-41"/>
    <contour>
      <point x="980" y="1342" type="line"/>
      <point x="980" y="1592" type="line"/>
      <point x="220" y="1592" type="line"/>
      <point x="220" y="1364" type="line"/>
      <point x="80" y="1219" type="line"/>
      <point x="80" y="1732" type="line"/>
      <point x="1120" y="1732" type="line"/>
      <point x="1120" y="1131" type="line"/>
    </contour>
    <contour>
      <point x="80" y="150" type="line"/>
      <point x="80" y="890" type="line"/>
      <point x="220" y="890" type="line"/>
      <point x="220" y="290" type="line"/>
      <point x="360" y="290" type="line"/>
      <point x="360" y="150" type="line"/>
    </contour>
    <contour>
      <point x="980" y="724" type="line"/>
      <point x="1120" y="870" type="line"/>
      <point x="1120" y="150" type="line"/>
      <point x="840" y="150" type="line"/>
      <point x="840" y="290" type="line"/>
      <point x="980" y="290" type="line"/>
    </contour>
  </outline>
</glyph>
<glyph name="ampersand_ampersand.liga" format="2">
  <advance width="1200"/>
  <outline>
    <contour>
      <point x="-625" y="1393" type="line"/>
      <point x="-188" y="1393" type="line"/>
      <point x="-77" y="1232" type="line"/>
      <point x="-77" y="1134" type="line"/>
      <point x="-404" y="794" type="line"/>
      <point x="-170" y="442" type="line"/>
      <point x="186" y="811" type="line"/>
      <point x="-10" y="1100" type="line"/>
      <point x="-10" y="1223" type="line"/>
      <point x="152" y="1393" type="line"/>
      <point x="589" y="1393" type="line"/>
      <point x="700" y="1232" type="line"/>
      <point x="700" y="1134" type="line"/>
      <point x="373" y="794" type="line"/>
      <point x="653" y="374" type="line"/>
      <point x="800" y="530" type="line"/>
      <point x="670" y="530" type="line" name=".hr01"/>
      <point x="670" y="674" type="line"/>
      <point x="950" y="674" type="line"/>
      <point x="950" y="472" type="line"/>
      <point x="734" y="251" type="line"/>
      <point x="908" y="0" type="line"/>
      <point x="734" y="0" type="line"/>
      <point x="632" y="149" type="line"/>
      <point x="492" y="0" type="line"/>
      <point x="-43" y="0" type="line"/>
      <point x="-143" y="147" type="line"/>
      <point x="-285" y="0" type="line"/>
      <point x="-820" y="0" type="line"/>
      <point x="-947" y="187" type="line"/>
      <point x="-947" y="442" type="line"/>
      <point x="-591" y="811" type="line"/>
      <point x="-787" y="1100" type="line"/>
      <point x="-787" y="1223" type="line"/>
    </contour>
    <contour>
      <point x="-651" y="1155" type="line"/>
      <point x="-489" y="917" type="line"/>
      <point x="-222" y="1189" type="line"/>
      <point x="-260" y="1249" type="line"/>
      <point x="-562" y="1249" type="line"/>
    </contour>
    <contour>
      <point x="126" y="1155" type="line"/>
      <point x="288" y="917" type="line"/>
      <point x="555" y="1189" type="line"/>
      <point x="517" y="1249" type="line"/>
      <point x="215" y="1249" type="line"/>
    </contour>
    <contour>
      <point x="-787" y="208" type="line"/>
      <point x="-744" y="144" type="line"/>
      <point x="-345" y="144" type="line"/>
      <point x="-226" y="268" type="line"/>
      <point x="-511" y="688" type="line"/>
      <point x="-787" y="399" type="line"/>
    </contour>
    <contour>
      <point x="33" y="144" type="line"/>
      <point x="432" y="144" type="line"/>
      <point x="551" y="268" type="line"/>
      <point x="266" y="688" type="line"/>
      <point x="-87" y="322" type="line"/>
    </contour>
  </outline>
</glyph>
<glyph name="exclam_equal_middle.seq" format="2">
  <advance width="1200"/>
  <outline>
    <component base="exclam"/>
    <contour>
      <point x="-20" y="730" type="line"/>
      <point x="-20" y="890" type="line"/>
      <point x="158" y="890" type="line"/>
      <point x="158" y="730" type="line"/>
    </contour>
    <contour>
      <point x="-20" y="362" type="line"/>
      <point x="-20" y="522" type="line"/>
      <point x="158" y="522" type="line"/>
      <point x="158" y="362" type="line"/>
    </contour>
    <contour>
      <point x="1042" y="730" type="line"/>
      <point x="1042" y="890" type="line"/>
      <point x="1220" y="890" type="line"/>
      <point x="1220" y="730" type="line"/>
    </contour>
    <contour>
      <point x="1042" y="362" type="line"/>
      <point x="1042" y="522" type="line"/>
      <point x="1220" y="522" type="line"/>
      <point x="1220" y="362" type="line"/>
    </contour>
  </outline>
</glyph>
<glyph name="hyphen.lc" format="2">
  <advance width="1200"/>
  <outline>
    <contour>
      <point x="940" y="520" type="line"/>
      <point x="260" y="520" type="line"/>
      <point x="260" y="664" type="line"/>
      <point x="940" y="664" type="line"/>
    </contour>
  </outline>
</glyph>
<glyph name="less_dollar_greater.liga" format="2">
  <advance width="1200"/>
  <outline>
    <contour>
      <point x="-853" y="1393" type="line" name=".hr02"/>
      <point x="-653" y="1393" type="line"/>
      <point x="-653" y="1537" type="line"/>
      <point x="-489" y="1537" type="line"/>
      <point x="-489" y="1393" type="line"/>
      <point x="127" y="1393" type="line"/>
      <point x="832" y="712" type="line"/>
      <point x="832" y="627" type="line"/>
      <point x="255" y="70" type="line"/>
      <point x="158" y="174" type="line"/>
      <point x="669" y="670" type="line"/>
      <point x="67" y="1249" type="line"/>
      <point x="-489" y="1249" type="line"/>
      <point x="-489" y="814" type="line"/>
      <point x="-274" y="814" type="line"/>
      <point x="-133" y="602" type="line"/>
      <point x="-133" y="145" type="line"/>
      <point x="-273" y="0" type="line" name=".hr01"/>
      <point x="-489" y="0" type="line"/>
      <point x="-489" y="-144" type="line"/>
      <point x="-653" y="-144" type="line"/>
      <point x="-653" y="0" type="line"/>
      <point x="-1381" y="0" type="line"/>
      <point x="-2032" y="633" type="line"/>
      <point x="-2032" y="718" type="line"/>
      <point x="-1459" y="1272" type="line"/>
      <point x="-1358" y="1167" type="line"/>
      <point x="-1869" y="676" type="line"/>
      <point x="-1321" y="144" type="line"/>
      <point x="-653" y="144" type="line"/>
      <point x="-653" y="670" type="line"/>
      <point x="-853" y="670" type="line"/>
      <point x="-1013" y="908" type="line"/>
      <point x="-1013" y="1227" type="line"/>
    </contour>
    <contour>
      <point x="-775" y="814" type="line"/>
      <point x="-653" y="814" type="line"/>
      <point x="-653" y="1249" type="line"/>
      <point x="-794" y="1249" type="line"/>
      <point x="-853" y="1186" type="line"/>
      <point x="-853" y="929" type="line"/>
    </contour>
    <contour>
      <point x="-489" y="144" type="line" name=".hr03"/>
      <point x="-341" y="144" type="line"/>
      <point x="-293" y="185" type="line"/>
      <point x="-293" y="586" type="line"/>
      <point x="-353" y="670" type="line"/>
      <point x="-489" y="670" type="line"/>
    </contour>
  </outline>
</glyph>
<glyph name="less_equal_end.seq" format="2">
  <advance width="1200"/>
  <outline>
    <component base="equal_end.seq" xScale="0.558485" xOffset="-10"/>
    <contour>
      <point x="328" y="518" type="line"/>
      <point x="836" y="24" type="line"/>
      <point x="937" y="128" type="line"/>
      <point x="535" y="518" type="line"/>
    </contour>
    <contour>
      <point x="325" y="726" type="line"/>
      <point x="532" y="726" type="line"/>
      <point x="937" y="1115" type="line"/>
      <point x="836" y="1220" type="line"/>
    </contour>
  </outline>
</glyph>
<glyph name="less_slash.liga" format="2">
  <advance width="1200"/>
  <outline>
    <contour>
      <point x="-246" y="1191" type="line"/>
      <point x="-170" y="1072" type="line"/>
      <point x="-888" y="625" type="line"/>
      <point x="14" y="61" type="line"/>
      <point x="775" y="1628" type="line"/>
      <point x="894" y="1567" type="line"/>
      <point x="-12" y="-295" type="line"/>
      <point x="-134" y="-242" type="line"/>
      <point x="-47" y="-64" type="line"/>
      <point x="-1023" y="543" type="line"/>
      <point x="-1023" y="711" type="line"/>
    </contour>
  </outline>
</glyph>
<glyph name="less_slash_greater.liga" format="2">
  <advance width="1200"/>
  <outline>
    <contour>
      <point x="-1246" y="1191" type="line"/>
      <point x="-1170" y="1072" type="line"/>
      <point x="-1888" y="625" type="line"/>
      <point x="-986" y="61" type="line"/>
      <point x="-225" y="1628" type="line"/>
      <point x="-106" y="1567" type="line"/>
      <point x="-211" y="1352" type="line"/>
      <point x="826" y="711" type="line"/>
      <point x="826" y="543" type="line"/>
      <point x="60" y="63" type="line"/>
      <point x="-28" y="176" type="line"/>
      <point x="691" y="625" type="line"/>
      <point x="-271" y="1227" type="line"/>
      <point x="-1012" y="-295" type="line"/>
      <point x="-1134" y="-242" type="line"/>
      <point x="-1047" y="-64" type="line"/>
      <point x="-2023" y="543" type="line"/>
      <point x="-2023" y="711" type="line"/>
    </contour>
  </outline>
</glyph>
<glyph name="numbersign_end.seq" format="2">
  <advance width="1200"/>
  <outline>
    <contour>
      <point x="405" y="480" type="line"/>
      <point x="702" y="480" type="line"/>
      <point x="779" y="913" type="line"/>
      <point x="486" y="913" type="line"/>
    </contour>
    <contour>
      <point x="1115" y="1058" type="line"/>
      <point x="1115" y="913" type="line"/>
      <point x="928" y="913" type="line"/>
      <point x="847" y="480" type="line"/>
      <point x="1009" y="480" type="line"/>
      <point x="1009" y="335" type="line" name=".hr01"/>
      <point x="822" y="335" type="line"/>
      <point x="757" y="0" type="line" name=".hr02"/>
      <point x="613" y="0" type="line"/>
      <point x="672" y="335" type="line" name=".hr03"/>
      <point x="380" y="335" type="line"/>
      <point x="320" y="0" type="line" name=".hr04"/>
      <point x="172" y="0" type="line"/>
      <point x="235" y="335" type="line" name=".hr05"/>
      <point x="0" y="335" type="line"/>
      <point x="0" y="480" type="line"/>
      <point x="261" y="480" type="line"/>
      <point x="341" y="913" type="line"/>
      <point x="0" y="913" type="line"/>
      <point x="0" y="1058" type="line"/>
      <point x="367" y="1058" type="line"/>
      <point x="430" y="1393" type="line" name=".hr06"/>
      <point x="575" y="1393" type="line"/>
      <point x="511" y="1058" type="line" name=".hr07"/>
      <point x="809" y="1058" type="line"/>
      <point x="869" y="1393" type="line" name=".hr08"/>
      <point x="1017" y="1393" type="line"/>
      <point x="953" y="1058" type="line" name=".hr09"/>
    </contour>
  </outline>
</glyph>
<glyph name="numbersign_equal.liga" format="2">
  <advance width="1200"/>
  <outline>
    <component base="equal" xOffset="-12" yOffset="76"/>
    <contour>
      <point x="-614" y="592" type="line"/>
      <point x="-317" y="592" type="line"/>
      <point x="-278" y="813" type="line"/>
      <point x="-571" y="813" type="line"/>
    </contour>
    <contour>
      <point x="58" y="958" type="line"/>
      <point x="58" y="813" type="line"/>
      <point x="-129" y="813" type="line"/>
      <point x="-172" y="592" type="line"/>
      <point x="58" y="592" type="line"/>
      <point x="58" y="447" type="line"/>
      <point x="-197" y="447" type="line"/>
      <point x="-282" y="1" type="line" name=".hr01"/>
      <point x="-426" y="1" type="line"/>
      <point x="-347" y="447" type="line"/>
      <point x="-639" y="447" type="line"/>
      <point x="-719" y="1" type="line"/>
      <point x="-867" y="1" type="line"/>
      <point x="-784" y="447" type="line"/>
      <point x="-945" y="447" type="line"/>
      <point x="-945" y="592" type="line"/>
      <point x="-758" y="592" type="line"/>
      <point x="-716" y="813" type="line"/>
      <point x="-877" y="813" type="line"/>
      <point x="-877" y="958" type="line"/>
      <point x="-690" y="958" type="line"/>
      <point x="-609" y="1394" type="line" name=".hr02"/>
      <point x="-464" y="1394" type="line"/>
      <point x="-546" y="958" type="line"/>
      <point x="-248" y="958" type="line"/>
      <point x="-170" y="1394" type="line"/>
      <point x="-22" y="1394" type="line"/>
      <point x="-104" y="958" type="line"/>
    </contour>
  </outline>
</glyph>
<glyph name="numbersign_middle.seq" format="2">
  <advance width="1200"/>
  <outline>
    <contour>
      <point x="405" y="480" type="line"/>
      <point x="702" y="480" type="line"/>
      <point x="779" y="913" type="line"/>
      <point x="486" y="913" type="line"/>
    </contour>
    <contour>
      <point x="1200" y="1058" type="line"/>
      <point x="1200" y="913" type="line"/>
      <point x="928" y="913" type="line"/>
      <point x="847" y="480" type="line"/>
      <point x="1200" y="480" type="line"/>
      <point x="1200" y="335" type="line" name=".hr01"/>
      <point x="822" y="335" type="line"/>
      <point x="757" y="0" type="line" name=".hr02"/>
      <point x="613" y="0" type="line"/>
      <point x="672" y="335" type="line" name=".hr03"/>
      <point x="380" y="335" type="line"/>
      <point x="320" y="0" type="line" name=".hr04"/>
      <point x="172" y="0" type="line"/>
      <point x="235" y="335" type="line" name=".hr05"/>
      <point x="0" y="335" type="line"/>
      <point x="0" y="480" type="line"/>
      <point x="261" y="480" type="line"/>
      <point x="341" y="913" type="line"/>
      <point x="0" y="913" type="line"/>
      <point x="0" y="1058" type="line"/>
      <point x="367" y="1058" type="line"/>
      <point x="430" y="1393" type="line" name=".hr06"/>
      <point x="575" y="1393" type="line"/>
      <point x="511" y="1058" type="line" name=".hr07"/>
      <point x="809" y="1058" type="line"/>
      <point x="869" y="1393" type="line" name=".hr08"/>
      <point x="1017" y="1393" type="line"/>
      <point x="953" y="1058" type="line" name=".hr09"/>
    </contour>
  </outline>
</glyph>
<glyph name="numbersign_start.seq" format="2">
  <advance width="1200"/>
  <outline>
    <contour>
      <point x="405" y="480" type="line"/>
      <point x="702" y="480" type="line"/>
      <point x="779" y="913" type="line"/>
      <point x="486" y="913" type="line"/>
    </contour>
    <contour>
      <point x="1200" y="1058" type="line"/>
      <point x="1200" y="913" type="line"/>
      <point x="928" y="913" type="line"/>
      <point x="847" y="480" type="line"/>
      <point x="1200" y="480" type="line"/>
      <point x="1200" y="335" type="line" name=".hr01"/>
      <point x="822" y="335" type="line"/>
      <point x="757" y="0" type="line" name=".hr02"/>
      <point x="613" y="0" type="line"/>
      <point x="672" y="335" type="line" name=".hr03"/>
      <point x="380" y="335" type="line"/>
      <point x="320" y="0" type="line" name=".hr04"/>
      <point x="172" y="0" type="line"/>
      <point x="235" y="335" type="line" name=".hr05"/>
      <point x="74" y="335" type="line"/>
      <point x="74" y="480" type="line"/>
      <point x="261" y="480" type="line"/>
      <point x="341" y="913" type="line"/>
      <point x="180" y="913" type="line"/>
      <point x="180" y="1058" type="line"/>
      <point x="367" y="1058" type="line"/>
      <point x="430" y="1393" type="line" name=".hr06"/>
      <point x="575" y="1393" type="line"/>
      <point x="511" y="1058" type="line" name=".hr07"/>
      <point x="809" y="1058" type="line"/>
      <point x="869" y="1393" type="line" name=".hr08"/>
      <point x="1017" y="1393" type="line"/>
      <point x="953" y="1058" type="line" name=".hr09"/>
    </contour>
  </outline>
</glyph>
<glyph name="plus_greater.liga" format="2">
  <advance width="1200"/>
  <outline>
    <component base="greater" xOffset="-77" yOffset="2"/>
    <contour>
      <point x="-548" y="1059" type="line"/>
      <point x="-404" y="1059" type="line"/>
      <point x="-404" y="748" type="line"/>
      <point x="752" y="748" type="line"/>
      <point x="752" y="604" type="line"/>
      <point x="-404" y="604" type="line"/>
      <point x="-404" y="294" type="line"/>
      <point x="-548" y="294" type="line"/>
      <point x="-548" y="604" type="line"/>
      <point x="-860" y="604" type="line"/>
      <point x="-860" y="748" type="line"/>
      <point x="-548" y="748" type="line"/>
    </contour>
  </outline>
</glyph>
<glyph name="slash_backslash.liga" format="2">
  <advance width="1200"/>
  <outline>
    <component base="slash" xOffset="-1200"/>
    <component base="backslash"/>
    <contour>
      <point x="-239" y="1439" type="line"/>
      <point x="239" y="1439" type="line"/>
      <point x="239" y="1583" type="line"/>
      <point x="-239" y="1583" type="line"/>
    </contour>
  </outline>
</glyph>
<glyph name="w_w_w.liga" format="2">
  <advance width="1200"/>
  <outline>
    <contour>
      <point x="185" y="0" type="line"/>
      <point x="-22" y="306" type="line"/>
      <point x="-317" y="0" type="line"/>
      <point x="-462" y="0" type="line"/>
      <point x="-581" y="180" type="line"/>
      <point x="-758" y="0" type="line"/>
      <point x="-899" y="0" type="line"/>
      <point x="-1103" y="302" type="line"/>
      <point x="-1397" y="0" type="line"/>
      <point x="-1542" y="0" type="line"/>
      <point x="-1661" y="180" type="line"/>
      <point x="-1838" y="0" type="line"/>
      <point x="-1979" y="0" type="line"/>
      <point x="-2240" y="386" type="line"/>
      <point x="-2240" y="930" type="line"/>
      <point x="-2080" y="930" type="line"/>
      <point x="-2080" y="406" type="line"/>
      <point x="-1905" y="145" type="line"/>
      <point x="-1896" y="145" type="line"/>
      <point x="-1760" y="287" type="line"/>
      <point x="-1760" y="650" type="line"/>
      <point x="-1600" y="650" type="line"/>
      <point x="-1600" y="344" type="line"/>
      <point x="-1464" y="145" type="line"/>
      <point x="-1458" y="145" type="line"/>
      <point x="-1259" y="349" type="line"/>
      <point x="-1259" y="650" type="line"/>
      <point x="-1099" y="650" type="line"/>
      <point x="-1099" y="551" type="line"/>
      <point x="-825" y="145" type="line"/>
      <point x="-816" y="145" type="line"/>
      <point x="-680" y="287" type="line"/>
      <point x="-680" y="650" type="line"/>
      <point x="-520" y="650" type="line"/>
      <point x="-520" y="344" type="line"/>
      <point x="-384" y="145" type="line"/>
      <point x="-378" y="145" type="line"/>
      <point x="-76" y="456" type="line"/>
      <point x="-76" y="650" type="line"/>
      <point x="84" y="650" type="line"/>
      <point x="84" y="406" type="line"/>
      <point x="259" y="145" type="line"/>
      <point x="268" y="145" type="line"/>
      <point x="404" y="287" type="line"/>
      <point x="404" y="650" type="line"/>
      <point x="564" y="650" type="line"/>
      <point x="564" y="344" type="line"/>
      <point x="700" y="145" type="line"/>
      <point x="706" y="145" type="line"/>
      <point x="884" y="328" type="line"/>
      <point x="884" y="930" type="line"/>
      <point x="1044" y="930" type="line"/>
      <point x="1044" y="287" type="line"/>
      <point x="767" y="0" type="line"/>
      <point x="622" y="0" type="line"/>
      <point x="503" y="180" type="line"/>
      <point x="326" y="0" type="line"/>
    </contour>
  </outline>
</glyph>
